# xmcd CD database file
#
# Track frame offsets:
#	150
#	19250
#	21368
#
# Disc length: 682 seconds
#
# Revision: 0
# Processed by: cddbd v1.5PL3 Copyright (c) Steve Scherf et al.
# Submitted via: CDex 1.40Release
#
DISCID=1d02a803
DTITLE=ROUND TABLE - COOL CLUB RULE
DYEAR=1999
DGENRE=JPop
TTITLE0=COOL CLUB RULE
TTITLE1=DOMINO TIME RAG
TTITLE2=VIVA! BROWNIE
EXTD=YEAR: 1999
EXTT0=
EXTT1=
EXTT2=
PLAYORDER=
